<svg width="30" height="29" viewBox="0 0 30 29" fill="solid" xmlns="http://www.w3.org/2000/svg">
<path d="M15 28.4625L13.4625 27.075C10.8125 24.65 8.625 22.5562 6.9 20.7937C5.175 19.0312 3.8 17.4562 2.775 16.0687C1.75 14.6812 1.03125 13.425 0.61875 12.3C0.20625 11.175 0 10.0375 0 8.8875C0 6.6375 0.75625 4.75625 2.26875 3.24375C3.78125 1.73125 5.65 0.974998 7.875 0.974998C9.3 0.974998 10.6187 1.3125 11.8312 1.9875C13.0437 2.6625 14.1 3.6375 15 4.9125C16.05 3.5625 17.1625 2.56875 18.3375 1.93125C19.5125 1.29375 20.775 0.974998 22.125 0.974998C24.35 0.974998 26.2187 1.73125 27.7312 3.24375C29.2437 4.75625 30 6.6375 30 8.8875C30 10.0375 29.7937 11.175 29.3812 12.3C28.9688 13.425 28.25 14.6812 27.225 16.0687C26.2 17.4562 24.825 19.0312 23.1 20.7937C21.375 22.5562 19.1875 24.65 16.5375 27.075L15 28.4625ZM15 25.5C17.525 23.175 19.6063 21.1812 21.2438 19.5187C22.8813 17.8562 24.1813 16.4 25.1438 15.15C26.1063 13.9 26.7812 12.7875 27.1687 11.8125C27.5562 10.8375 27.75 9.8625 27.75 8.8875C27.75 7.2375 27.225 5.88125 26.175 4.81875C25.125 3.75625 23.775 3.225 22.125 3.225C20.85 3.225 19.6625 3.61875 18.5625 4.40625C17.4625 5.19375 16.575 6.3 15.9 7.725H14.0625C13.4125 6.325 12.5375 5.225 11.4375 4.425C10.3375 3.625 9.15 3.225 7.875 3.225C6.225 3.225 4.875 3.75625 3.825 4.81875C2.775 5.88125 2.25 7.2375 2.25 8.8875C2.25 9.8625 2.44375 10.8437 2.83125 11.8312C3.21875 12.8187 3.89375 13.9437 4.85625 15.2062C5.81875 16.4687 7.125 17.925 8.775 19.575C10.425 21.225 12.5 23.2 15 25.5Z" fill="red"/>
</svg>
