<svg width="207" height="190" viewBox="0 0 207 190" fill="none" xmlns="http://www.w3.org/2000/svg">
<path d="M103.5 190L92.8913 180.409C74.6063 163.647 59.5125 149.175 47.61 136.992C35.7075 124.809 26.22 113.922 19.1475 104.332C12.075 94.7408 7.11562 86.0573 4.26937 78.281C1.42312 70.5048 0 62.6421 0 54.693C0 39.1405 5.21813 26.1369 15.6544 15.6821C26.0906 5.22737 38.985 0 54.3375 0C64.17 0 73.2694 2.33288 81.6356 6.99863C90.0019 11.6644 97.29 18.4038 103.5 27.2169C110.745 17.8854 118.421 11.0164 126.529 6.60982C134.636 2.20327 143.348 0 152.663 0C168.015 0 180.909 5.22737 191.346 15.6821C201.782 26.1369 207 39.1405 207 54.693C207 62.6421 205.577 70.5048 202.731 78.281C199.884 86.0573 194.925 94.7408 187.852 104.332C180.78 113.922 171.292 124.809 159.39 136.992C147.487 149.175 132.394 163.647 114.109 180.409L103.5 190ZM103.5 169.523C120.923 153.452 135.283 139.67 146.582 128.179C157.881 116.687 166.851 106.621 173.492 97.9809C180.133 89.3406 184.791 81.6507 187.464 74.9113C190.138 68.1719 191.475 61.4325 191.475 54.693C191.475 43.2879 187.853 33.9131 180.608 26.5689C173.363 19.2246 164.048 15.5525 152.663 15.5525C143.865 15.5525 135.671 18.2742 128.081 23.7176C120.491 29.161 114.368 36.8076 109.71 46.6576H97.0312C92.5462 36.9804 86.5088 29.377 78.9188 23.8472C71.3288 18.3174 63.135 15.5525 54.3375 15.5525C42.9525 15.5525 33.6375 19.2246 26.3925 26.5689C19.1475 33.9131 15.525 43.2879 15.525 54.693C15.525 61.4325 16.8619 68.2151 19.5356 75.0409C22.2094 81.8668 26.8669 89.643 33.5081 98.3697C40.1494 107.096 49.1625 117.162 60.5475 128.568C71.9325 139.973 86.25 153.624 103.5 169.523Z" fill="#DC4145"/>
<path d="M24.6753 104.991L103.758 177.082L109.444 183L170.436 123.283L203 54.9574L177.673 18.9119L145.626 6L103.758 40.9696L83.0831 18.9119L36.5636 6L4 36.1277L24.6753 104.991Z" fill="#DC4145"/>
</svg>
