<svg width="33" height="24" viewBox="0 0 33 24" fill="none" xmlns="http://www.w3.org/2000/svg">
<path d="M18.75 14.25C17.5 14.25 16.4375 13.8125 15.5625 12.9375C14.6875 12.0625 14.25 11 14.25 9.75C14.25 8.5 14.6875 7.4375 15.5625 6.5625C16.4375 5.6875 17.5 5.25 18.75 5.25C20 5.25 21.0625 5.6875 21.9375 6.5625C22.8125 7.4375 23.25 8.5 23.25 9.75C23.25 11 22.8125 12.0625 21.9375 12.9375C21.0625 13.8125 20 14.25 18.75 14.25ZM6.75 19.5C6.125 19.5 5.59375 19.2812 5.15625 18.8438C4.71875 18.4062 4.5 17.875 4.5 17.25V2.25C4.5 1.625 4.71875 1.09375 5.15625 0.65625C5.59375 0.21875 6.125 0 6.75 0H30.75C31.375 0 31.9062 0.21875 32.3438 0.65625C32.7812 1.09375 33 1.625 33 2.25V17.25C33 17.875 32.7812 18.4062 32.3438 18.8438C31.9062 19.2812 31.375 19.5 30.75 19.5H6.75ZM10.5 17.25H27C27 16.2 27.3625 15.3125 28.0875 14.5875C28.8125 13.8625 29.7 13.5 30.75 13.5V6C29.7 6 28.8125 5.6375 28.0875 4.9125C27.3625 4.1875 27 3.3 27 2.25H10.5C10.5 3.3 10.1375 4.1875 9.4125 4.9125C8.6875 5.6375 7.8 6 6.75 6V13.5C7.8 13.5 8.6875 13.8625 9.4125 14.5875C10.1375 15.3125 10.5 16.2 10.5 17.25ZM28.5 24H2.25C1.625 24 1.09375 23.7812 0.65625 23.3438C0.21875 22.9062 0 22.375 0 21.75V4.5H2.25V21.75H28.5V24Z" fill="#FF8D00"/>
</svg>
