<svg width="28" height="30" viewBox="0 0 28 30" fill="none" xmlns="http://www.w3.org/2000/svg">
<path d="M22.7625 30C21.5875 30 20.5813 29.5813 19.7438 28.7438C18.9062 27.9062 18.4875 26.9 18.4875 25.725C18.4875 25.55 18.5063 25.3437 18.5438 25.1062C18.5813 24.8687 18.6375 24.65 18.7125 24.45L7.35 17.85C6.975 18.275 6.5125 18.6187 5.9625 18.8812C5.4125 19.1437 4.85 19.275 4.275 19.275C3.1 19.275 2.09375 18.8562 1.25625 18.0187C0.41875 17.1812 0 16.175 0 15C0 13.8 0.41875 12.7875 1.25625 11.9625C2.09375 11.1375 3.1 10.725 4.275 10.725C4.85 10.725 5.4 10.8375 5.925 11.0625C6.45 11.2875 6.925 11.6125 7.35 12.0375L18.7125 5.5125C18.6375 5.3375 18.5813 5.1375 18.5438 4.9125C18.5063 4.6875 18.4875 4.475 18.4875 4.275C18.4875 3.075 18.9062 2.0625 19.7438 1.2375C20.5813 0.4125 21.5875 0 22.7625 0C23.9625 0 24.975 0.4125 25.8 1.2375C26.625 2.0625 27.0375 3.075 27.0375 4.275C27.0375 5.45 26.625 6.45625 25.8 7.29375C24.975 8.13125 23.9625 8.55 22.7625 8.55C22.1875 8.55 21.6313 8.45625 21.0938 8.26875C20.5562 8.08125 20.1 7.775 19.725 7.35L8.3625 13.65C8.4125 13.85 8.45625 14.0813 8.49375 14.3438C8.53125 14.6062 8.55 14.825 8.55 15C8.55 15.175 8.53125 15.3625 8.49375 15.5625C8.45625 15.7625 8.4125 15.9625 8.3625 16.1625L19.725 22.6125C20.1 22.2625 20.5375 21.9813 21.0375 21.7688C21.5375 21.5563 22.1125 21.45 22.7625 21.45C23.9625 21.45 24.975 21.8625 25.8 22.6875C26.625 23.5125 27.0375 24.525 27.0375 25.725C27.0375 26.9 26.625 27.9062 25.8 28.7438C24.975 29.5813 23.9625 30 22.7625 30ZM22.7625 6.3C23.3375 6.3 23.8188 6.10625 24.2063 5.71875C24.5938 5.33125 24.7875 4.85 24.7875 4.275C24.7875 3.7 24.5938 3.21875 24.2063 2.83125C23.8188 2.44375 23.3375 2.25 22.7625 2.25C22.1875 2.25 21.7062 2.44375 21.3187 2.83125C20.9312 3.21875 20.7375 3.7 20.7375 4.275C20.7375 4.85 20.9312 5.33125 21.3187 5.71875C21.7062 6.10625 22.1875 6.3 22.7625 6.3ZM4.275 17.025C4.85 17.025 5.33125 16.8312 5.71875 16.4437C6.10625 16.0562 6.3 15.575 6.3 15C6.3 14.425 6.10625 13.9438 5.71875 13.5563C5.33125 13.1688 4.85 12.975 4.275 12.975C3.7 12.975 3.21875 13.1688 2.83125 13.5563C2.44375 13.9438 2.25 14.425 2.25 15C2.25 15.575 2.44375 16.0562 2.83125 16.4437C3.21875 16.8312 3.7 17.025 4.275 17.025ZM22.7625 27.75C23.3375 27.75 23.8188 27.5562 24.2063 27.1687C24.5938 26.7812 24.7875 26.3 24.7875 25.725C24.7875 25.15 24.5938 24.6688 24.2063 24.2812C23.8188 23.8937 23.3375 23.7 22.7625 23.7C22.1875 23.7 21.7062 23.8937 21.3187 24.2812C20.9312 24.6688 20.7375 25.15 20.7375 25.725C20.7375 26.3 20.9312 26.7812 21.3187 27.1687C21.7062 27.5562 22.1875 27.75 22.7625 27.75Z" fill="#FF8D00"/>
</svg>
